<svg width="120" height="40" viewBox="0 0 120 40" fill="none" xmlns="http://www.w3.org/2000/svg">
  <!-- Background circle -->
  <circle cx="20" cy="20" r="18" fill="#1E40AF" stroke="#1E40AF" stroke-width="1"/>
  
  <!-- Car/Patrol vehicle icon -->
  <path d="M8 24C8 22.8954 8.89543 22 10 22H30C31.1046 22 32 22.8954 32 24V26C32 27.1046 31.1046 28 30 28H10C8.89543 28 8 27.1046 8 26V24Z" fill="white"/>
  
  <!-- Car body -->
  <path d="M12 20C12 18.8954 12.8954 18 14 18H26C27.1046 18 28 18.8954 28 20V22H12V20Z" fill="white"/>
  
  <!-- Car windows -->
  <rect x="14" y="16" width="4" height="2" fill="white"/>
  <rect x="22" y="16" width="4" height="2" fill="white"/>
  
  <!-- Wheels -->
  <circle cx="12" cy="26" r="2" fill="#1E40AF"/>
  <circle cx="28" cy="26" r="2" fill="#1E40AF"/>
  
  <!-- IPatroller text -->
  <text x="45" y="18" font-family="Arial, sans-serif" font-size="14" font-weight="bold" fill="#1E40AF">IPatroller</text>
  <text x="45" y="32" font-family="Arial, sans-serif" font-size="10" fill="#6B7280">System</text>
</svg>
